<svg viewBox="0 0 1066 750" fill="none" xmlns="http://www.w3.org/2000/svg">
<rect x="149" width="351" height="688" rx="20" fill="#1E1D22"/>
<path opacity="0.5" d="M149.5 60H498.5" stroke="black" stroke-width="2" stroke-linecap="square" stroke-linejoin="round"/>
<path d="M226.6 88.04V102H223.8V92.92L220.06 102H217.94L214.18 92.92V102H211.38V88.04H214.56L219 98.42L223.44 88.04H226.6ZM230.788 89.6C230.295 89.6 229.882 89.4467 229.548 89.14C229.228 88.82 229.068 88.4267 229.068 87.96C229.068 87.4933 229.228 87.1067 229.548 86.8C229.882 86.48 230.295 86.32 230.788 86.32C231.282 86.32 231.688 86.48 232.008 86.8C232.342 87.1067 232.508 87.4933 232.508 87.96C232.508 88.4267 232.342 88.82 232.008 89.14C231.688 89.4467 231.282 89.6 230.788 89.6ZM232.168 90.92V102H229.368V90.92H232.168ZM234.215 96.46C234.215 95.3133 234.448 94.3133 234.915 93.46C235.381 92.5933 236.028 91.9267 236.855 91.46C237.681 90.98 238.628 90.74 239.695 90.74C241.068 90.74 242.201 91.0867 243.095 91.78C244.001 92.46 244.608 93.42 244.915 94.66H241.895C241.735 94.18 241.461 93.8067 241.075 93.54C240.701 93.26 240.235 93.12 239.675 93.12C238.875 93.12 238.241 93.4133 237.775 94C237.308 94.5733 237.075 95.3933 237.075 96.46C237.075 97.5133 237.308 98.3333 237.775 98.92C238.241 99.4933 238.875 99.78 239.675 99.78C240.808 99.78 241.548 99.2733 241.895 98.26H244.915C244.608 99.46 244.001 100.413 243.095 101.12C242.188 101.827 241.055 102.18 239.695 102.18C238.628 102.18 237.681 101.947 236.855 101.48C236.028 101 235.381 100.333 234.915 99.48C234.448 98.6133 234.215 97.6067 234.215 96.46ZM249.766 92.64C250.126 92.0533 250.593 91.5933 251.166 91.26C251.753 90.9267 252.419 90.76 253.166 90.76V93.7H252.426C251.546 93.7 250.879 93.9067 250.426 94.32C249.986 94.7333 249.766 95.4533 249.766 96.48V102H246.966V90.92H249.766V92.64ZM259.972 102.18C258.905 102.18 257.945 101.947 257.092 101.48C256.239 101 255.565 100.327 255.072 99.46C254.592 98.5933 254.352 97.5933 254.352 96.46C254.352 95.3267 254.599 94.3267 255.092 93.46C255.599 92.5933 256.285 91.9267 257.152 91.46C258.019 90.98 258.985 90.74 260.052 90.74C261.119 90.74 262.085 90.98 262.952 91.46C263.819 91.9267 264.499 92.5933 264.992 93.46C265.499 94.3267 265.752 95.3267 265.752 96.46C265.752 97.5933 265.492 98.5933 264.972 99.46C264.465 100.327 263.772 101 262.892 101.48C262.025 101.947 261.052 102.18 259.972 102.18ZM259.972 99.74C260.479 99.74 260.952 99.62 261.392 99.38C261.845 99.1267 262.205 98.7533 262.472 98.26C262.739 97.7667 262.872 97.1667 262.872 96.46C262.872 95.4067 262.592 94.6 262.032 94.04C261.485 93.4667 260.812 93.18 260.012 93.18C259.212 93.18 258.539 93.4667 257.992 94.04C257.459 94.6 257.192 95.4067 257.192 96.46C257.192 97.5133 257.452 98.3267 257.972 98.9C258.505 99.46 259.172 99.74 259.972 99.74ZM272.046 102.18C271.139 102.18 270.326 102.02 269.606 101.7C268.886 101.367 268.312 100.92 267.886 100.36C267.472 99.8 267.246 99.18 267.206 98.5H270.026C270.079 98.9267 270.286 99.28 270.646 99.56C271.019 99.84 271.479 99.98 272.026 99.98C272.559 99.98 272.972 99.8733 273.266 99.66C273.572 99.4467 273.726 99.1733 273.726 98.84C273.726 98.48 273.539 98.2133 273.166 98.04C272.806 97.8533 272.226 97.6533 271.426 97.44C270.599 97.24 269.919 97.0333 269.386 96.82C268.866 96.6067 268.412 96.28 268.026 95.84C267.652 95.4 267.466 94.8067 267.466 94.06C267.466 93.4467 267.639 92.8867 267.986 92.38C268.346 91.8733 268.852 91.4733 269.506 91.18C270.172 90.8867 270.952 90.74 271.846 90.74C273.166 90.74 274.219 91.0733 275.006 91.74C275.792 92.3933 276.226 93.28 276.306 94.4H273.626C273.586 93.96 273.399 93.6133 273.066 93.36C272.746 93.0933 272.312 92.96 271.766 92.96C271.259 92.96 270.866 93.0533 270.586 93.24C270.319 93.4267 270.186 93.6867 270.186 94.02C270.186 94.3933 270.372 94.68 270.746 94.88C271.119 95.0667 271.699 95.26 272.486 95.46C273.286 95.66 273.946 95.8667 274.466 96.08C274.986 96.2933 275.432 96.6267 275.806 97.08C276.192 97.52 276.392 98.1067 276.406 98.84C276.406 99.48 276.226 100.053 275.866 100.56C275.519 101.067 275.012 101.467 274.346 101.76C273.692 102.04 272.926 102.18 272.046 102.18ZM283.624 102.18C282.558 102.18 281.598 101.947 280.744 101.48C279.891 101 279.218 100.327 278.724 99.46C278.244 98.5933 278.004 97.5933 278.004 96.46C278.004 95.3267 278.251 94.3267 278.744 93.46C279.251 92.5933 279.938 91.9267 280.804 91.46C281.671 90.98 282.638 90.74 283.704 90.74C284.771 90.74 285.738 90.98 286.604 91.46C287.471 91.9267 288.151 92.5933 288.644 93.46C289.151 94.3267 289.404 95.3267 289.404 96.46C289.404 97.5933 289.144 98.5933 288.624 99.46C288.118 100.327 287.424 101 286.544 101.48C285.678 101.947 284.704 102.18 283.624 102.18ZM283.624 99.74C284.131 99.74 284.604 99.62 285.044 99.38C285.498 99.1267 285.858 98.7533 286.124 98.26C286.391 97.7667 286.524 97.1667 286.524 96.46C286.524 95.4067 286.244 94.6 285.684 94.04C285.138 93.4667 284.464 93.18 283.664 93.18C282.864 93.18 282.191 93.4667 281.644 94.04C281.111 94.6 280.844 95.4067 280.844 96.46C280.844 97.5133 281.104 98.3267 281.624 98.9C282.158 99.46 282.824 99.74 283.624 99.74ZM296.538 93.22H294.598V102H291.758V93.22H290.498V90.92H291.758V90.36C291.758 89 292.145 88 292.918 87.36C293.691 86.72 294.858 86.42 296.418 86.46V88.82C295.738 88.8067 295.265 88.92 294.998 89.16C294.731 89.4 294.598 89.8333 294.598 90.46V90.92H296.538V93.22ZM301.613 93.22V98.58C301.613 98.9533 301.699 99.2267 301.873 99.4C302.059 99.56 302.366 99.64 302.793 99.64H304.093V102H302.333C299.973 102 298.793 100.853 298.793 98.56V93.22H297.473V90.92H298.793V88.18H301.613V90.92H304.093V93.22H301.613ZM320.372 88.04V90.3H316.652V102H313.852V90.3H310.132V88.04H320.372ZM332.715 96.22C332.715 96.62 332.688 96.98 332.635 97.3H324.535C324.602 98.1 324.882 98.7267 325.375 99.18C325.868 99.6333 326.475 99.86 327.195 99.86C328.235 99.86 328.975 99.4133 329.415 98.52H332.435C332.115 99.5867 331.502 100.467 330.595 101.16C329.688 101.84 328.575 102.18 327.255 102.18C326.188 102.18 325.228 101.947 324.375 101.48C323.535 101 322.875 100.327 322.395 99.46C321.928 98.5933 321.695 97.5933 321.695 96.46C321.695 95.3133 321.928 94.3067 322.395 93.44C322.862 92.5733 323.515 91.9067 324.355 91.44C325.195 90.9733 326.162 90.74 327.255 90.74C328.308 90.74 329.248 90.9667 330.075 91.42C330.915 91.8733 331.562 92.52 332.015 93.36C332.482 94.1867 332.715 95.14 332.715 96.22ZM329.815 95.42C329.802 94.7 329.542 94.1267 329.035 93.7C328.528 93.26 327.908 93.04 327.175 93.04C326.482 93.04 325.895 93.2533 325.415 93.68C324.948 94.0933 324.662 94.6733 324.555 95.42H329.815ZM334.039 96.42C334.039 95.3 334.259 94.3067 334.699 93.44C335.152 92.5733 335.759 91.9067 336.519 91.44C337.292 90.9733 338.152 90.74 339.099 90.74C339.926 90.74 340.646 90.9067 341.259 91.24C341.886 91.5733 342.386 91.9933 342.759 92.5V90.92H345.579V102H342.759V100.38C342.399 100.9 341.899 101.333 341.259 101.68C340.632 102.013 339.906 102.18 339.079 102.18C338.146 102.18 337.292 101.94 336.519 101.46C335.759 100.98 335.152 100.307 334.699 99.44C334.259 98.56 334.039 97.5533 334.039 96.42ZM342.759 96.46C342.759 95.78 342.626 95.2 342.359 94.72C342.092 94.2267 341.732 93.8533 341.279 93.6C340.826 93.3333 340.339 93.2 339.819 93.2C339.299 93.2 338.819 93.3267 338.379 93.58C337.939 93.8333 337.579 94.2067 337.299 94.7C337.032 95.18 336.899 95.7533 336.899 96.42C336.899 97.0867 337.032 97.6733 337.299 98.18C337.579 98.6733 337.939 99.0533 338.379 99.32C338.832 99.5867 339.312 99.72 339.819 99.72C340.339 99.72 340.826 99.5933 341.279 99.34C341.732 99.0733 342.092 98.7 342.359 98.22C342.626 97.7267 342.759 97.14 342.759 96.46ZM362.074 90.76C363.434 90.76 364.527 91.18 365.354 92.02C366.194 92.8467 366.614 94.0067 366.614 95.5V102H363.814V95.88C363.814 95.0133 363.594 94.3533 363.154 93.9C362.714 93.4333 362.114 93.2 361.354 93.2C360.594 93.2 359.987 93.4333 359.534 93.9C359.094 94.3533 358.874 95.0133 358.874 95.88V102H356.074V95.88C356.074 95.0133 355.854 94.3533 355.414 93.9C354.974 93.4333 354.374 93.2 353.614 93.2C352.84 93.2 352.227 93.4333 351.774 93.9C351.334 94.3533 351.114 95.0133 351.114 95.88V102H348.314V90.92H351.114V92.26C351.474 91.7933 351.934 91.4267 352.494 91.16C353.067 90.8933 353.694 90.76 354.374 90.76C355.24 90.76 356.014 90.9467 356.694 91.32C357.374 91.68 357.9 92.2 358.274 92.88C358.634 92.24 359.154 91.7267 359.834 91.34C360.527 90.9533 361.274 90.76 362.074 90.76ZM373.511 102.18C372.604 102.18 371.791 102.02 371.071 101.7C370.351 101.367 369.777 100.92 369.351 100.36C368.937 99.8 368.711 99.18 368.671 98.5H371.491C371.544 98.9267 371.751 99.28 372.111 99.56C372.484 99.84 372.944 99.98 373.491 99.98C374.024 99.98 374.437 99.8733 374.731 99.66C375.037 99.4467 375.191 99.1733 375.191 98.84C375.191 98.48 375.004 98.2133 374.631 98.04C374.271 97.8533 373.691 97.6533 372.891 97.44C372.064 97.24 371.384 97.0333 370.851 96.82C370.331 96.6067 369.877 96.28 369.491 95.84C369.117 95.4 368.931 94.8067 368.931 94.06C368.931 93.4467 369.104 92.8867 369.451 92.38C369.811 91.8733 370.317 91.4733 370.971 91.18C371.637 90.8867 372.417 90.74 373.311 90.74C374.631 90.74 375.684 91.0733 376.471 91.74C377.257 92.3933 377.691 93.28 377.771 94.4H375.091C375.051 93.96 374.864 93.6133 374.531 93.36C374.211 93.0933 373.777 92.96 373.231 92.96C372.724 92.96 372.331 93.0533 372.051 93.24C371.784 93.4267 371.651 93.6867 371.651 94.02C371.651 94.3933 371.837 94.68 372.211 94.88C372.584 95.0667 373.164 95.26 373.951 95.46C374.751 95.66 375.411 95.8667 375.931 96.08C376.451 96.2933 376.897 96.6267 377.271 97.08C377.657 97.52 377.857 98.1067 377.871 98.84C377.871 99.48 377.691 100.053 377.331 100.56C376.984 101.067 376.477 101.467 375.811 101.76C375.157 102.04 374.391 102.18 373.511 102.18Z" fill="white"/>
<path d="M221.1 146.24C220.78 145.653 220.34 145.207 219.78 144.9C219.22 144.593 218.567 144.44 217.82 144.44C216.993 144.44 216.26 144.627 215.62 145C214.98 145.373 214.48 145.907 214.12 146.6C213.76 147.293 213.58 148.093 213.58 149C213.58 149.933 213.76 150.747 214.12 151.44C214.493 152.133 215.007 152.667 215.66 153.04C216.313 153.413 217.073 153.6 217.94 153.6C219.007 153.6 219.88 153.32 220.56 152.76C221.24 152.187 221.687 151.393 221.9 150.38H217.1V148.24H224.66V150.68C224.473 151.653 224.073 152.553 223.46 153.38C222.847 154.207 222.053 154.873 221.08 155.38C220.12 155.873 219.04 156.12 217.84 156.12C216.493 156.12 215.273 155.82 214.18 155.22C213.1 154.607 212.247 153.76 211.62 152.68C211.007 151.6 210.7 150.373 210.7 149C210.7 147.627 211.007 146.4 211.62 145.32C212.247 144.227 213.1 143.38 214.18 142.78C215.273 142.167 216.487 141.86 217.82 141.86C219.393 141.86 220.76 142.247 221.92 143.02C223.08 143.78 223.88 144.853 224.32 146.24H221.1ZM228.152 143.6C227.658 143.6 227.245 143.447 226.912 143.14C226.592 142.82 226.432 142.427 226.432 141.96C226.432 141.493 226.592 141.107 226.912 140.8C227.245 140.48 227.658 140.32 228.152 140.32C228.645 140.32 229.052 140.48 229.372 140.8C229.705 141.107 229.872 141.493 229.872 141.96C229.872 142.427 229.705 142.82 229.372 143.14C229.052 143.447 228.645 143.6 228.152 143.6ZM229.532 144.92V156H226.732V144.92H229.532ZM235.558 147.22V152.58C235.558 152.953 235.645 153.227 235.818 153.4C236.005 153.56 236.311 153.64 236.738 153.64H238.038V156H236.278C233.918 156 232.738 154.853 232.738 152.56V147.22H231.418V144.92H232.738V142.18H235.558V144.92H238.038V147.22H235.558ZM246.292 144.76C247.132 144.76 247.879 144.947 248.532 145.32C249.185 145.68 249.692 146.22 250.052 146.94C250.425 147.647 250.612 148.5 250.612 149.5V156H247.812V149.88C247.812 149 247.592 148.327 247.152 147.86C246.712 147.38 246.112 147.14 245.352 147.14C244.579 147.14 243.965 147.38 243.512 147.86C243.072 148.327 242.852 149 242.852 149.88V156H240.052V141.2H242.852V146.3C243.212 145.82 243.692 145.447 244.292 145.18C244.892 144.9 245.559 144.76 246.292 144.76ZM263.735 144.92V156H260.915V154.6C260.555 155.08 260.081 155.46 259.495 155.74C258.921 156.007 258.295 156.14 257.615 156.14C256.748 156.14 255.981 155.96 255.315 155.6C254.648 155.227 254.121 154.687 253.735 153.98C253.361 153.26 253.175 152.407 253.175 151.42V144.92H255.975V151.02C255.975 151.9 256.195 152.58 256.635 153.06C257.075 153.527 257.675 153.76 258.435 153.76C259.208 153.76 259.815 153.527 260.255 153.06C260.695 152.58 260.915 151.9 260.915 151.02V144.92H263.735ZM269.297 146.54C269.657 146.007 270.151 145.573 270.777 145.24C271.417 144.907 272.144 144.74 272.957 144.74C273.904 144.74 274.757 144.973 275.517 145.44C276.291 145.907 276.897 146.573 277.337 147.44C277.791 148.293 278.017 149.287 278.017 150.42C278.017 151.553 277.791 152.56 277.337 153.44C276.897 154.307 276.291 154.98 275.517 155.46C274.757 155.94 273.904 156.18 272.957 156.18C272.131 156.18 271.404 156.02 270.777 155.7C270.164 155.367 269.671 154.94 269.297 154.42V156H266.497V141.2H269.297V146.54ZM275.157 150.42C275.157 149.753 275.017 149.18 274.737 148.7C274.471 148.207 274.111 147.833 273.657 147.58C273.217 147.327 272.737 147.2 272.217 147.2C271.711 147.2 271.231 147.333 270.777 147.6C270.337 147.853 269.977 148.227 269.697 148.72C269.431 149.213 269.297 149.793 269.297 150.46C269.297 151.127 269.431 151.707 269.697 152.2C269.977 152.693 270.337 153.073 270.777 153.34C271.231 153.593 271.711 153.72 272.217 153.72C272.737 153.72 273.217 153.587 273.657 153.32C274.111 153.053 274.471 152.673 274.737 152.18C275.017 151.687 275.157 151.1 275.157 150.42Z" fill="white"/>
<path d="M223.92 196.04L218.8 210H215.4L210.28 196.04H213.28L217.12 207.14L220.94 196.04H223.92ZM227.019 197.6C226.525 197.6 226.112 197.447 225.779 197.14C225.459 196.82 225.299 196.427 225.299 195.96C225.299 195.493 225.459 195.107 225.779 194.8C226.112 194.48 226.525 194.32 227.019 194.32C227.512 194.32 227.919 194.48 228.239 194.8C228.572 195.107 228.739 195.493 228.739 195.96C228.739 196.427 228.572 196.82 228.239 197.14C227.919 197.447 227.512 197.6 227.019 197.6ZM228.399 198.92V210H225.599V198.92H228.399ZM235.405 210.18C234.498 210.18 233.685 210.02 232.965 209.7C232.245 209.367 231.672 208.92 231.245 208.36C230.832 207.8 230.605 207.18 230.565 206.5H233.385C233.438 206.927 233.645 207.28 234.005 207.56C234.378 207.84 234.838 207.98 235.385 207.98C235.918 207.98 236.332 207.873 236.625 207.66C236.932 207.447 237.085 207.173 237.085 206.84C237.085 206.48 236.898 206.213 236.525 206.04C236.165 205.853 235.585 205.653 234.785 205.44C233.958 205.24 233.278 205.033 232.745 204.82C232.225 204.607 231.772 204.28 231.385 203.84C231.012 203.4 230.825 202.807 230.825 202.06C230.825 201.447 230.998 200.887 231.345 200.38C231.705 199.873 232.212 199.473 232.865 199.18C233.532 198.887 234.312 198.74 235.205 198.74C236.525 198.74 237.578 199.073 238.365 199.74C239.152 200.393 239.585 201.28 239.665 202.4H236.985C236.945 201.96 236.758 201.613 236.425 201.36C236.105 201.093 235.672 200.96 235.125 200.96C234.618 200.96 234.225 201.053 233.945 201.24C233.678 201.427 233.545 201.687 233.545 202.02C233.545 202.393 233.732 202.68 234.105 202.88C234.478 203.067 235.058 203.26 235.845 203.46C236.645 203.66 237.305 203.867 237.825 204.08C238.345 204.293 238.792 204.627 239.165 205.08C239.552 205.52 239.752 206.107 239.765 206.84C239.765 207.48 239.585 208.053 239.225 208.56C238.878 209.067 238.372 209.467 237.705 209.76C237.052 210.04 236.285 210.18 235.405 210.18ZM252.524 198.92V210H249.704V208.6C249.344 209.08 248.87 209.46 248.284 209.74C247.71 210.007 247.084 210.14 246.404 210.14C245.537 210.14 244.77 209.96 244.104 209.6C243.437 209.227 242.91 208.687 242.524 207.98C242.15 207.26 241.964 206.407 241.964 205.42V198.92H244.764V205.02C244.764 205.9 244.984 206.58 245.424 207.06C245.864 207.527 246.464 207.76 247.224 207.76C247.997 207.76 248.604 207.527 249.044 207.06C249.484 206.58 249.704 205.9 249.704 205.02V198.92H252.524ZM254.566 204.42C254.566 203.3 254.786 202.307 255.226 201.44C255.68 200.573 256.286 199.907 257.046 199.44C257.82 198.973 258.68 198.74 259.626 198.74C260.453 198.74 261.173 198.907 261.786 199.24C262.413 199.573 262.913 199.993 263.286 200.5V198.92H266.106V210H263.286V208.38C262.926 208.9 262.426 209.333 261.786 209.68C261.16 210.013 260.433 210.18 259.606 210.18C258.673 210.18 257.82 209.94 257.046 209.46C256.286 208.98 255.68 208.307 255.226 207.44C254.786 206.56 254.566 205.553 254.566 204.42ZM263.286 204.46C263.286 203.78 263.153 203.2 262.886 202.72C262.62 202.227 262.26 201.853 261.806 201.6C261.353 201.333 260.866 201.2 260.346 201.2C259.826 201.2 259.346 201.327 258.906 201.58C258.466 201.833 258.106 202.207 257.826 202.7C257.56 203.18 257.426 203.753 257.426 204.42C257.426 205.087 257.56 205.673 257.826 206.18C258.106 206.673 258.466 207.053 258.906 207.32C259.36 207.587 259.84 207.72 260.346 207.72C260.866 207.72 261.353 207.593 261.806 207.34C262.26 207.073 262.62 206.7 262.886 206.22C263.153 205.727 263.286 205.14 263.286 204.46ZM271.641 195.2V210H268.841V195.2H271.641ZM283.993 210.14C283.02 210.14 282.14 209.973 281.353 209.64C280.58 209.307 279.966 208.827 279.513 208.2C279.06 207.573 278.826 206.833 278.813 205.98H281.813C281.853 206.553 282.053 207.007 282.413 207.34C282.786 207.673 283.293 207.84 283.933 207.84C284.586 207.84 285.1 207.687 285.473 207.38C285.846 207.06 286.033 206.647 286.033 206.14C286.033 205.727 285.906 205.387 285.653 205.12C285.4 204.853 285.08 204.647 284.693 204.5C284.32 204.34 283.8 204.167 283.133 203.98C282.226 203.713 281.486 203.453 280.913 203.2C280.353 202.933 279.866 202.54 279.453 202.02C279.053 201.487 278.853 200.78 278.853 199.9C278.853 199.073 279.06 198.353 279.473 197.74C279.886 197.127 280.466 196.66 281.213 196.34C281.96 196.007 282.813 195.84 283.773 195.84C285.213 195.84 286.38 196.193 287.273 196.9C288.18 197.593 288.68 198.567 288.773 199.82H285.693C285.666 199.34 285.46 198.947 285.073 198.64C284.7 198.32 284.2 198.16 283.573 198.16C283.026 198.16 282.586 198.3 282.253 198.58C281.933 198.86 281.773 199.267 281.773 199.8C281.773 200.173 281.893 200.487 282.133 200.74C282.386 200.98 282.693 201.18 283.053 201.34C283.426 201.487 283.946 201.66 284.613 201.86C285.52 202.127 286.26 202.393 286.833 202.66C287.406 202.927 287.9 203.327 288.313 203.86C288.726 204.393 288.933 205.093 288.933 205.96C288.933 206.707 288.74 207.4 288.353 208.04C287.966 208.68 287.4 209.193 286.653 209.58C285.906 209.953 285.02 210.14 283.993 210.14ZM294.62 201.22V206.58C294.62 206.953 294.707 207.227 294.88 207.4C295.067 207.56 295.374 207.64 295.8 207.64H297.1V210H295.34C292.98 210 291.8 208.853 291.8 206.56V201.22H290.48V198.92H291.8V196.18H294.62V198.92H297.1V201.22H294.62ZM309.574 198.92V210H306.754V208.6C306.394 209.08 305.921 209.46 305.334 209.74C304.761 210.007 304.134 210.14 303.454 210.14C302.588 210.14 301.821 209.96 301.154 209.6C300.488 209.227 299.961 208.687 299.574 207.98C299.201 207.26 299.014 206.407 299.014 205.42V198.92H301.814V205.02C301.814 205.9 302.034 206.58 302.474 207.06C302.914 207.527 303.514 207.76 304.274 207.76C305.048 207.76 305.654 207.527 306.094 207.06C306.534 206.58 306.754 205.9 306.754 205.02V198.92H309.574ZM311.617 204.42C311.617 203.3 311.837 202.307 312.277 201.44C312.73 200.573 313.344 199.907 314.117 199.44C314.89 198.973 315.75 198.74 316.697 198.74C317.417 198.74 318.104 198.9 318.757 199.22C319.41 199.527 319.93 199.94 320.317 200.46V195.2H323.157V210H320.317V208.36C319.97 208.907 319.484 209.347 318.857 209.68C318.23 210.013 317.504 210.18 316.677 210.18C315.744 210.18 314.89 209.94 314.117 209.46C313.344 208.98 312.73 208.307 312.277 207.44C311.837 206.56 311.617 205.553 311.617 204.42ZM320.337 204.46C320.337 203.78 320.204 203.2 319.937 202.72C319.67 202.227 319.31 201.853 318.857 201.6C318.404 201.333 317.917 201.2 317.397 201.2C316.877 201.2 316.397 201.327 315.957 201.58C315.517 201.833 315.157 202.207 314.877 202.7C314.61 203.18 314.477 203.753 314.477 204.42C314.477 205.087 314.61 205.673 314.877 206.18C315.157 206.673 315.517 207.053 315.957 207.32C316.41 207.587 316.89 207.72 317.397 207.72C317.917 207.72 318.404 207.593 318.857 207.34C319.31 207.073 319.67 206.7 319.937 206.22C320.204 205.727 320.337 205.14 320.337 204.46ZM327.312 197.6C326.818 197.6 326.405 197.447 326.072 197.14C325.752 196.82 325.592 196.427 325.592 195.96C325.592 195.493 325.752 195.107 326.072 194.8C326.405 194.48 326.818 194.32 327.312 194.32C327.805 194.32 328.212 194.48 328.532 194.8C328.865 195.107 329.032 195.493 329.032 195.96C329.032 196.427 328.865 196.82 328.532 197.14C328.212 197.447 327.805 197.6 327.312 197.6ZM328.692 198.92V210H325.892V198.92H328.692ZM336.378 210.18C335.311 210.18 334.351 209.947 333.498 209.48C332.645 209 331.971 208.327 331.478 207.46C330.998 206.593 330.758 205.593 330.758 204.46C330.758 203.327 331.005 202.327 331.498 201.46C332.005 200.593 332.691 199.927 333.558 199.46C334.425 198.98 335.391 198.74 336.458 198.74C337.525 198.74 338.491 198.98 339.358 199.46C340.225 199.927 340.905 200.593 341.398 201.46C341.905 202.327 342.158 203.327 342.158 204.46C342.158 205.593 341.898 206.593 341.378 207.46C340.871 208.327 340.178 209 339.298 209.48C338.431 209.947 337.458 210.18 336.378 210.18ZM336.378 207.74C336.885 207.74 337.358 207.62 337.798 207.38C338.251 207.127 338.611 206.753 338.878 206.26C339.145 205.767 339.278 205.167 339.278 204.46C339.278 203.407 338.998 202.6 338.438 202.04C337.891 201.467 337.218 201.18 336.418 201.18C335.618 201.18 334.945 201.467 334.398 202.04C333.865 202.6 333.598 203.407 333.598 204.46C333.598 205.513 333.858 206.327 334.378 206.9C334.911 207.46 335.578 207.74 336.378 207.74ZM348.298 203C348.298 201.627 348.604 200.4 349.218 199.32C349.844 198.227 350.691 197.38 351.758 196.78C352.838 196.167 354.044 195.86 355.378 195.86C356.938 195.86 358.304 196.26 359.478 197.06C360.651 197.86 361.471 198.967 361.938 200.38H358.718C358.398 199.713 357.944 199.213 357.358 198.88C356.784 198.547 356.118 198.38 355.358 198.38C354.544 198.38 353.818 198.573 353.178 198.96C352.551 199.333 352.058 199.867 351.698 200.56C351.351 201.253 351.178 202.067 351.178 203C351.178 203.92 351.351 204.733 351.698 205.44C352.058 206.133 352.551 206.673 353.178 207.06C353.818 207.433 354.544 207.62 355.358 207.62C356.118 207.62 356.784 207.453 357.358 207.12C357.944 206.773 358.398 206.267 358.718 205.6H361.938C361.471 207.027 360.651 208.14 359.478 208.94C358.318 209.727 356.951 210.12 355.378 210.12C354.044 210.12 352.838 209.82 351.758 209.22C350.691 208.607 349.844 207.76 349.218 206.68C348.604 205.6 348.298 204.373 348.298 203ZM369.249 210.18C368.183 210.18 367.223 209.947 366.369 209.48C365.516 209 364.843 208.327 364.349 207.46C363.869 206.593 363.629 205.593 363.629 204.46C363.629 203.327 363.876 202.327 364.369 201.46C364.876 200.593 365.563 199.927 366.429 199.46C367.296 198.98 368.263 198.74 369.329 198.74C370.396 198.74 371.363 198.98 372.229 199.46C373.096 199.927 373.776 200.593 374.269 201.46C374.776 202.327 375.029 203.327 375.029 204.46C375.029 205.593 374.769 206.593 374.249 207.46C373.743 208.327 373.049 209 372.169 209.48C371.303 209.947 370.329 210.18 369.249 210.18ZM369.249 207.74C369.756 207.74 370.229 207.62 370.669 207.38C371.123 207.127 371.483 206.753 371.749 206.26C372.016 205.767 372.149 205.167 372.149 204.46C372.149 203.407 371.869 202.6 371.309 202.04C370.763 201.467 370.089 201.18 369.289 201.18C368.489 201.18 367.816 201.467 367.269 202.04C366.736 202.6 366.469 203.407 366.469 204.46C366.469 205.513 366.729 206.327 367.249 206.9C367.783 207.46 368.449 207.74 369.249 207.74ZM376.363 204.42C376.363 203.3 376.583 202.307 377.023 201.44C377.476 200.573 378.09 199.907 378.863 199.44C379.636 198.973 380.496 198.74 381.443 198.74C382.163 198.74 382.85 198.9 383.503 199.22C384.156 199.527 384.676 199.94 385.063 200.46V195.2H387.903V210H385.063V208.36C384.716 208.907 384.23 209.347 383.603 209.68C382.976 210.013 382.25 210.18 381.423 210.18C380.49 210.18 379.636 209.94 378.863 209.46C378.09 208.98 377.476 208.307 377.023 207.44C376.583 206.56 376.363 205.553 376.363 204.42ZM385.083 204.46C385.083 203.78 384.95 203.2 384.683 202.72C384.416 202.227 384.056 201.853 383.603 201.6C383.15 201.333 382.663 201.2 382.143 201.2C381.623 201.2 381.143 201.327 380.703 201.58C380.263 201.833 379.903 202.207 379.623 202.7C379.356 203.18 379.223 203.753 379.223 204.42C379.223 205.087 379.356 205.673 379.623 206.18C379.903 206.673 380.263 207.053 380.703 207.32C381.156 207.587 381.636 207.72 382.143 207.72C382.663 207.72 383.15 207.593 383.603 207.34C384.056 207.073 384.416 206.7 384.683 206.22C384.95 205.727 385.083 205.14 385.083 204.46ZM400.938 204.22C400.938 204.62 400.911 204.98 400.858 205.3H392.758C392.824 206.1 393.104 206.727 393.598 207.18C394.091 207.633 394.698 207.86 395.418 207.86C396.458 207.86 397.198 207.413 397.638 206.52H400.658C400.338 207.587 399.724 208.467 398.818 209.16C397.911 209.84 396.798 210.18 395.478 210.18C394.411 210.18 393.451 209.947 392.598 209.48C391.758 209 391.098 208.327 390.618 207.46C390.151 206.593 389.918 205.593 389.918 204.46C389.918 203.313 390.151 202.307 390.618 201.44C391.084 200.573 391.738 199.907 392.578 199.44C393.418 198.973 394.384 198.74 395.478 198.74C396.531 198.74 397.471 198.967 398.298 199.42C399.138 199.873 399.784 200.52 400.238 201.36C400.704 202.187 400.938 203.14 400.938 204.22ZM398.038 203.42C398.024 202.7 397.764 202.127 397.258 201.7C396.751 201.26 396.131 201.04 395.398 201.04C394.704 201.04 394.118 201.253 393.638 201.68C393.171 202.093 392.884 202.673 392.778 203.42H398.038Z" fill="white"/>
<path d="M220 249.04V251.3H214.18V254.88H218.64V257.1H214.18V263H211.38V249.04H220ZM223.405 250.6C222.912 250.6 222.499 250.447 222.165 250.14C221.845 249.82 221.685 249.427 221.685 248.96C221.685 248.493 221.845 248.107 222.165 247.8C222.499 247.48 222.912 247.32 223.405 247.32C223.899 247.32 224.305 247.48 224.625 247.8C224.959 248.107 225.125 248.493 225.125 248.96C225.125 249.427 224.959 249.82 224.625 250.14C224.305 250.447 223.899 250.6 223.405 250.6ZM224.785 251.92V263H221.985V251.92H224.785ZM231.892 251.74C232.719 251.74 233.445 251.907 234.072 252.24C234.699 252.56 235.192 252.98 235.552 253.5V251.92H238.372V263.08C238.372 264.107 238.165 265.02 237.752 265.82C237.339 266.633 236.719 267.273 235.892 267.74C235.065 268.22 234.065 268.46 232.892 268.46C231.319 268.46 230.025 268.093 229.012 267.36C228.012 266.627 227.445 265.627 227.312 264.36H230.092C230.239 264.867 230.552 265.267 231.032 265.56C231.525 265.867 232.119 266.02 232.812 266.02C233.625 266.02 234.285 265.773 234.792 265.28C235.299 264.8 235.552 264.067 235.552 263.08V261.36C235.192 261.88 234.692 262.313 234.052 262.66C233.425 263.007 232.705 263.18 231.892 263.18C230.959 263.18 230.105 262.94 229.332 262.46C228.559 261.98 227.945 261.307 227.492 260.44C227.052 259.56 226.832 258.553 226.832 257.42C226.832 256.3 227.052 255.307 227.492 254.44C227.945 253.573 228.552 252.907 229.312 252.44C230.085 251.973 230.945 251.74 231.892 251.74ZM235.552 257.46C235.552 256.78 235.419 256.2 235.152 255.72C234.885 255.227 234.525 254.853 234.072 254.6C233.619 254.333 233.132 254.2 232.612 254.2C232.092 254.2 231.612 254.327 231.172 254.58C230.732 254.833 230.372 255.207 230.092 255.7C229.825 256.18 229.692 256.753 229.692 257.42C229.692 258.087 229.825 258.673 230.092 259.18C230.372 259.673 230.732 260.053 231.172 260.32C231.625 260.587 232.105 260.72 232.612 260.72C233.132 260.72 233.619 260.593 234.072 260.34C234.525 260.073 234.885 259.7 235.152 259.22C235.419 258.727 235.552 258.14 235.552 257.46ZM254.867 251.76C256.227 251.76 257.32 252.18 258.147 253.02C258.987 253.847 259.407 255.007 259.407 256.5V263H256.607V256.88C256.607 256.013 256.387 255.353 255.947 254.9C255.507 254.433 254.907 254.2 254.147 254.2C253.387 254.2 252.78 254.433 252.327 254.9C251.887 255.353 251.667 256.013 251.667 256.88V263H248.867V256.88C248.867 256.013 248.647 255.353 248.207 254.9C247.767 254.433 247.167 254.2 246.407 254.2C245.633 254.2 245.02 254.433 244.567 254.9C244.127 255.353 243.907 256.013 243.907 256.88V263H241.107V251.92H243.907V253.26C244.267 252.793 244.727 252.427 245.287 252.16C245.86 251.893 246.487 251.76 247.167 251.76C248.033 251.76 248.807 251.947 249.487 252.32C250.167 252.68 250.693 253.2 251.067 253.88C251.427 253.24 251.947 252.727 252.627 252.34C253.32 251.953 254.067 251.76 254.867 251.76ZM261.344 257.42C261.344 256.3 261.564 255.307 262.004 254.44C262.457 253.573 263.064 252.907 263.824 252.44C264.597 251.973 265.457 251.74 266.404 251.74C267.23 251.74 267.95 251.907 268.564 252.24C269.19 252.573 269.69 252.993 270.064 253.5V251.92H272.884V263H270.064V261.38C269.704 261.9 269.204 262.333 268.564 262.68C267.937 263.013 267.21 263.18 266.384 263.18C265.45 263.18 264.597 262.94 263.824 262.46C263.064 261.98 262.457 261.307 262.004 260.44C261.564 259.56 261.344 258.553 261.344 257.42ZM270.064 257.46C270.064 256.78 269.93 256.2 269.664 255.72C269.397 255.227 269.037 254.853 268.584 254.6C268.13 254.333 267.644 254.2 267.124 254.2C266.604 254.2 266.124 254.327 265.684 254.58C265.244 254.833 264.884 255.207 264.604 255.7C264.337 256.18 264.204 256.753 264.204 257.42C264.204 258.087 264.337 258.673 264.604 259.18C264.884 259.673 265.244 260.053 265.684 260.32C266.137 260.587 266.617 260.72 267.124 260.72C267.644 260.72 268.13 260.593 268.584 260.34C269.037 260.073 269.397 259.7 269.664 259.22C269.93 258.727 270.064 258.14 270.064 257.46Z" fill="white"/>
<path d="M221.1 307.24C220.78 306.653 220.34 306.207 219.78 305.9C219.22 305.593 218.567 305.44 217.82 305.44C216.993 305.44 216.26 305.627 215.62 306C214.98 306.373 214.48 306.907 214.12 307.6C213.76 308.293 213.58 309.093 213.58 310C213.58 310.933 213.76 311.747 214.12 312.44C214.493 313.133 215.007 313.667 215.66 314.04C216.313 314.413 217.073 314.6 217.94 314.6C219.007 314.6 219.88 314.32 220.56 313.76C221.24 313.187 221.687 312.393 221.9 311.38H217.1V309.24H224.66V311.68C224.473 312.653 224.073 313.553 223.46 314.38C222.847 315.207 222.053 315.873 221.08 316.38C220.12 316.873 219.04 317.12 217.84 317.12C216.493 317.12 215.273 316.82 214.18 316.22C213.1 315.607 212.247 314.76 211.62 313.68C211.007 312.6 210.7 311.373 210.7 310C210.7 308.627 211.007 307.4 211.62 306.32C212.247 305.227 213.1 304.38 214.18 303.78C215.273 303.167 216.487 302.86 217.82 302.86C219.393 302.86 220.76 303.247 221.92 304.02C223.08 304.78 223.88 305.853 224.32 307.24H221.1ZM231.652 317.18C230.585 317.18 229.625 316.947 228.772 316.48C227.918 316 227.245 315.327 226.752 314.46C226.272 313.593 226.032 312.593 226.032 311.46C226.032 310.327 226.278 309.327 226.772 308.46C227.278 307.593 227.965 306.927 228.832 306.46C229.698 305.98 230.665 305.74 231.732 305.74C232.798 305.74 233.765 305.98 234.632 306.46C235.498 306.927 236.178 307.593 236.672 308.46C237.178 309.327 237.432 310.327 237.432 311.46C237.432 312.593 237.172 313.593 236.652 314.46C236.145 315.327 235.452 316 234.572 316.48C233.705 316.947 232.732 317.18 231.652 317.18ZM231.652 314.74C232.158 314.74 232.632 314.62 233.072 314.38C233.525 314.127 233.885 313.753 234.152 313.26C234.418 312.767 234.552 312.167 234.552 311.46C234.552 310.407 234.272 309.6 233.712 309.04C233.165 308.467 232.492 308.18 231.692 308.18C230.892 308.18 230.218 308.467 229.672 309.04C229.138 309.6 228.872 310.407 228.872 311.46C228.872 312.513 229.132 313.327 229.652 313.9C230.185 314.46 230.852 314.74 231.652 314.74ZM244.405 317.18C243.339 317.18 242.379 316.947 241.525 316.48C240.672 316 239.999 315.327 239.505 314.46C239.025 313.593 238.785 312.593 238.785 311.46C238.785 310.327 239.032 309.327 239.525 308.46C240.032 307.593 240.719 306.927 241.585 306.46C242.452 305.98 243.419 305.74 244.485 305.74C245.552 305.74 246.519 305.98 247.385 306.46C248.252 306.927 248.932 307.593 249.425 308.46C249.932 309.327 250.185 310.327 250.185 311.46C250.185 312.593 249.925 313.593 249.405 314.46C248.899 315.327 248.205 316 247.325 316.48C246.459 316.947 245.485 317.18 244.405 317.18ZM244.405 314.74C244.912 314.74 245.385 314.62 245.825 314.38C246.279 314.127 246.639 313.753 246.905 313.26C247.172 312.767 247.305 312.167 247.305 311.46C247.305 310.407 247.025 309.6 246.465 309.04C245.919 308.467 245.245 308.18 244.445 308.18C243.645 308.18 242.972 308.467 242.425 309.04C241.892 309.6 241.625 310.407 241.625 311.46C241.625 312.513 241.885 313.327 242.405 313.9C242.939 314.46 243.605 314.74 244.405 314.74ZM256.579 305.74C257.406 305.74 258.133 305.907 258.759 306.24C259.386 306.56 259.879 306.98 260.239 307.5V305.92H263.059V317.08C263.059 318.107 262.853 319.02 262.439 319.82C262.026 320.633 261.406 321.273 260.579 321.74C259.753 322.22 258.753 322.46 257.579 322.46C256.006 322.46 254.713 322.093 253.699 321.36C252.699 320.627 252.133 319.627 251.999 318.36H254.779C254.926 318.867 255.239 319.267 255.719 319.56C256.213 319.867 256.806 320.02 257.499 320.02C258.313 320.02 258.973 319.773 259.479 319.28C259.986 318.8 260.239 318.067 260.239 317.08V315.36C259.879 315.88 259.379 316.313 258.739 316.66C258.113 317.007 257.393 317.18 256.579 317.18C255.646 317.18 254.793 316.94 254.019 316.46C253.246 315.98 252.633 315.307 252.179 314.44C251.739 313.56 251.519 312.553 251.519 311.42C251.519 310.3 251.739 309.307 252.179 308.44C252.633 307.573 253.239 306.907 253.999 306.44C254.773 305.973 255.633 305.74 256.579 305.74ZM260.239 311.46C260.239 310.78 260.106 310.2 259.839 309.72C259.573 309.227 259.213 308.853 258.759 308.6C258.306 308.333 257.819 308.2 257.299 308.2C256.779 308.2 256.299 308.327 255.859 308.58C255.419 308.833 255.059 309.207 254.779 309.7C254.513 310.18 254.379 310.753 254.379 311.42C254.379 312.087 254.513 312.673 254.779 313.18C255.059 313.673 255.419 314.053 255.859 314.32C256.313 314.587 256.793 314.72 257.299 314.72C257.819 314.72 258.306 314.593 258.759 314.34C259.213 314.073 259.573 313.7 259.839 313.22C260.106 312.727 260.239 312.14 260.239 311.46ZM268.594 302.2V317H265.794V302.2H268.594ZM281.66 311.22C281.66 311.62 281.634 311.98 281.58 312.3H273.48C273.547 313.1 273.827 313.727 274.32 314.18C274.814 314.633 275.42 314.86 276.14 314.86C277.18 314.86 277.92 314.413 278.36 313.52H281.38C281.06 314.587 280.447 315.467 279.54 316.16C278.634 316.84 277.52 317.18 276.2 317.18C275.134 317.18 274.174 316.947 273.32 316.48C272.48 316 271.82 315.327 271.34 314.46C270.874 313.593 270.64 312.593 270.64 311.46C270.64 310.313 270.874 309.307 271.34 308.44C271.807 307.573 272.46 306.907 273.3 306.44C274.14 305.973 275.107 305.74 276.2 305.74C277.254 305.74 278.194 305.967 279.02 306.42C279.86 306.873 280.507 307.52 280.96 308.36C281.427 309.187 281.66 310.14 281.66 311.22ZM278.76 310.42C278.747 309.7 278.487 309.127 277.98 308.7C277.474 308.26 276.854 308.04 276.12 308.04C275.427 308.04 274.84 308.253 274.36 308.68C273.894 309.093 273.607 309.673 273.5 310.42H278.76ZM287.79 310C287.79 308.627 288.097 307.4 288.71 306.32C289.337 305.227 290.183 304.38 291.25 303.78C292.33 303.167 293.537 302.86 294.87 302.86C296.43 302.86 297.797 303.26 298.97 304.06C300.143 304.86 300.963 305.967 301.43 307.38H298.21C297.89 306.713 297.437 306.213 296.85 305.88C296.277 305.547 295.61 305.38 294.85 305.38C294.037 305.38 293.31 305.573 292.67 305.96C292.043 306.333 291.55 306.867 291.19 307.56C290.843 308.253 290.67 309.067 290.67 310C290.67 310.92 290.843 311.733 291.19 312.44C291.55 313.133 292.043 313.673 292.67 314.06C293.31 314.433 294.037 314.62 294.85 314.62C295.61 314.62 296.277 314.453 296.85 314.12C297.437 313.773 297.89 313.267 298.21 312.6H301.43C300.963 314.027 300.143 315.14 298.97 315.94C297.81 316.727 296.443 317.12 294.87 317.12C293.537 317.12 292.33 316.82 291.25 316.22C290.183 315.607 289.337 314.76 288.71 313.68C288.097 312.6 287.79 311.373 287.79 310ZM310.061 305.76C310.901 305.76 311.648 305.947 312.301 306.32C312.955 306.68 313.461 307.22 313.821 307.94C314.195 308.647 314.381 309.5 314.381 310.5V317H311.581V310.88C311.581 310 311.361 309.327 310.921 308.86C310.481 308.38 309.881 308.14 309.121 308.14C308.348 308.14 307.735 308.38 307.281 308.86C306.841 309.327 306.621 310 306.621 310.88V317H303.821V302.2H306.621V307.3C306.981 306.82 307.461 306.447 308.061 306.18C308.661 305.9 309.328 305.76 310.061 305.76ZM319.844 307.64C320.204 307.053 320.671 306.593 321.244 306.26C321.831 305.927 322.497 305.76 323.244 305.76V308.7H322.504C321.624 308.7 320.957 308.907 320.504 309.32C320.064 309.733 319.844 310.453 319.844 311.48V317H317.044V305.92H319.844V307.64ZM330.05 317.18C328.983 317.18 328.023 316.947 327.17 316.48C326.317 316 325.643 315.327 325.15 314.46C324.67 313.593 324.43 312.593 324.43 311.46C324.43 310.327 324.677 309.327 325.17 308.46C325.677 307.593 326.363 306.927 327.23 306.46C328.097 305.98 329.063 305.74 330.13 305.74C331.197 305.74 332.163 305.98 333.03 306.46C333.897 306.927 334.577 307.593 335.07 308.46C335.577 309.327 335.83 310.327 335.83 311.46C335.83 312.593 335.57 313.593 335.05 314.46C334.543 315.327 333.85 316 332.97 316.48C332.103 316.947 331.13 317.18 330.05 317.18ZM330.05 314.74C330.557 314.74 331.03 314.62 331.47 314.38C331.923 314.127 332.283 313.753 332.55 313.26C332.817 312.767 332.95 312.167 332.95 311.46C332.95 310.407 332.67 309.6 332.11 309.04C331.563 308.467 330.89 308.18 330.09 308.18C329.29 308.18 328.617 308.467 328.07 309.04C327.537 309.6 327.27 310.407 327.27 311.46C327.27 312.513 327.53 313.327 328.05 313.9C328.583 314.46 329.25 314.74 330.05 314.74ZM351.644 305.76C353.004 305.76 354.097 306.18 354.924 307.02C355.764 307.847 356.184 309.007 356.184 310.5V317H353.384V310.88C353.384 310.013 353.164 309.353 352.724 308.9C352.284 308.433 351.684 308.2 350.924 308.2C350.164 308.2 349.557 308.433 349.104 308.9C348.664 309.353 348.444 310.013 348.444 310.88V317H345.644V310.88C345.644 310.013 345.424 309.353 344.984 308.9C344.544 308.433 343.944 308.2 343.184 308.2C342.411 308.2 341.797 308.433 341.344 308.9C340.904 309.353 340.684 310.013 340.684 310.88V317H337.884V305.92H340.684V307.26C341.044 306.793 341.504 306.427 342.064 306.16C342.637 305.893 343.264 305.76 343.944 305.76C344.811 305.76 345.584 305.947 346.264 306.32C346.944 306.68 347.471 307.2 347.844 307.88C348.204 307.24 348.724 306.727 349.404 306.34C350.097 305.953 350.844 305.76 351.644 305.76ZM369.141 311.22C369.141 311.62 369.114 311.98 369.061 312.3H360.961C361.028 313.1 361.308 313.727 361.801 314.18C362.294 314.633 362.901 314.86 363.621 314.86C364.661 314.86 365.401 314.413 365.841 313.52H368.861C368.541 314.587 367.928 315.467 367.021 316.16C366.114 316.84 365.001 317.18 363.681 317.18C362.614 317.18 361.654 316.947 360.801 316.48C359.961 316 359.301 315.327 358.821 314.46C358.354 313.593 358.121 312.593 358.121 311.46C358.121 310.313 358.354 309.307 358.821 308.44C359.288 307.573 359.941 306.907 360.781 306.44C361.621 305.973 362.588 305.74 363.681 305.74C364.734 305.74 365.674 305.967 366.501 306.42C367.341 306.873 367.988 307.52 368.441 308.36C368.908 309.187 369.141 310.14 369.141 311.22ZM366.241 310.42C366.228 309.7 365.968 309.127 365.461 308.7C364.954 308.26 364.334 308.04 363.601 308.04C362.908 308.04 362.321 308.253 361.841 308.68C361.374 309.093 361.088 309.673 360.981 310.42H366.241Z" fill="white"/>
<rect x="163.5" y="75.5" width="39" height="39" stroke="black" stroke-opacity="0.1"/>
<g clip-path="url(#clip0_1_2090)">
<path d="M170.5 82.5H182.405V94.4048H170.5V82.5Z" fill="#F35325"/>
<path d="M183.595 82.5H195.5V94.4048H183.595V82.5Z" fill="#81BC06"/>
<path d="M170.5 95.5952H182.405V107.5H170.5V95.5952Z" fill="#05A6F0"/>
<path d="M183.595 95.5952H195.5V107.5H183.595V95.5952Z" fill="#FFBA08"/>
</g>
<g clip-path="url(#clip1_1_2090)">
<path d="M197 135H169V163H197V135Z" fill="#231E1B"/>
<path fill-rule="evenodd" clip-rule="evenodd" d="M182.971 139.667C177.834 139.667 173.667 143.816 173.667 148.932C173.667 153.025 176.349 156.492 180.003 157.743C180.46 157.799 180.631 157.515 180.631 157.288C180.631 157.06 180.631 156.492 180.631 155.696C178.062 156.265 177.491 154.446 177.491 154.446C177.092 153.366 176.464 153.082 176.464 153.082C175.607 152.513 176.521 152.513 176.521 152.513C177.434 152.57 177.948 153.479 177.948 153.479C178.804 154.9 180.117 154.503 180.631 154.275C180.688 153.65 180.973 153.252 181.202 153.025C179.147 152.797 176.977 152.001 176.977 148.42C176.977 147.397 177.32 146.601 177.948 145.919C177.891 145.749 177.548 144.782 178.062 143.532C178.062 143.532 178.861 143.305 180.631 144.498C181.373 144.271 182.172 144.214 182.971 144.214C183.77 144.214 184.57 144.328 185.312 144.498C187.081 143.305 187.881 143.532 187.881 143.532C188.394 144.782 188.052 145.749 187.995 145.976C188.566 146.601 188.965 147.454 188.965 148.477C188.965 152.058 186.796 152.797 184.741 153.025C185.083 153.309 185.369 153.877 185.369 154.73C185.369 155.98 185.369 156.947 185.369 157.288C185.369 157.515 185.54 157.799 185.997 157.743C189.707 156.492 192.333 153.025 192.333 148.932C192.276 143.816 188.109 139.667 182.971 139.667Z" fill="white"/>
</g>
<rect x="169.5" y="135.5" width="27" height="27" stroke="black" stroke-opacity="0.1"/>
<path d="M196.045 192.86L190.485 190.168C189.842 189.856 189.073 189.988 188.568 190.496L170.367 207.187C169.878 207.636 169.878 208.411 170.368 208.859L171.855 210.219C172.256 210.585 172.859 210.612 173.291 210.283L195.209 193.559C195.944 192.998 197 193.525 197 194.454V194.389C197 193.737 196.629 193.143 196.045 192.86Z" fill="#0065A9"/>
<path d="M196.045 214.14L190.485 216.832C189.841 217.144 189.072 217.012 188.567 216.504L170.367 199.813C169.877 199.364 169.878 198.589 170.368 198.141L171.855 196.782C172.255 196.415 172.859 196.388 173.29 196.717L195.208 213.441C195.943 214.002 197 213.475 197 212.546V212.611C197 213.263 196.628 213.857 196.045 214.14Z" fill="#007ACC"/>
<path fill-rule="evenodd" clip-rule="evenodd" d="M189.135 216.885C189.56 217.051 190.044 217.04 190.473 216.833L196.029 214.144C196.612 213.862 196.984 213.267 196.984 212.616V194.385C196.984 193.733 196.612 193.138 196.029 192.856L190.473 190.167C189.91 189.895 189.251 189.961 188.757 190.323C188.687 190.374 188.62 190.432 188.556 190.495L177.921 200.254L173.29 196.717C172.859 196.388 172.255 196.415 171.855 196.782L170.368 198.141C169.878 198.589 169.877 199.364 170.367 199.813L174.384 203.5L170.367 207.187C169.878 207.636 169.878 208.411 170.368 208.859L171.855 210.219C172.256 210.585 172.859 210.612 173.291 210.283L177.921 206.746L188.556 216.505C188.725 216.674 188.922 216.801 189.135 216.885ZM190.242 197.339L182.172 203.5L190.242 209.661V197.339Z" fill="#006CB5"/>
<path d="M183 256.5C183 254.291 184.791 252.5 187 252.5C189.209 252.5 191 254.291 191 256.5C191 258.709 189.209 260.5 187 260.5C184.791 260.5 183 258.709 183 256.5Z" fill="#1ABCFE"/>
<path d="M175 264.5C175 262.291 176.791 260.5 179 260.5H183V264.5C183 266.709 181.209 268.5 179 268.5C176.791 268.5 175 266.709 175 264.5Z" fill="#0ACF83"/>
<path d="M183 244.5V252.5H187C189.209 252.5 191 250.709 191 248.5C191 246.291 189.209 244.5 187 244.5H183Z" fill="#FF7262"/>
<path d="M175 248.5C175 250.709 176.791 252.5 179 252.5H183V244.5H179C176.791 244.5 175 246.291 175 248.5Z" fill="#F24E1E"/>
<path d="M175 256.5C175 258.709 176.791 260.5 179 260.5H183V252.5H179C176.791 252.5 175 254.291 175 256.5Z" fill="#A259FF"/>
<rect x="168.5" y="295.5" width="29" height="29" stroke="black" stroke-opacity="0.1"/>
<path fill-rule="evenodd" clip-rule="evenodd" d="M192.812 310.227C192.812 309.518 192.749 308.836 192.63 308.182H183.2V312.05H188.589C188.357 313.3 187.651 314.359 186.591 315.068V317.577H189.827C191.72 315.836 192.812 313.273 192.812 310.227Z" fill="#4285F4"/>
<path fill-rule="evenodd" clip-rule="evenodd" d="M183.2 320C185.903 320 188.17 319.104 189.826 317.577L186.59 315.068C185.694 315.668 184.547 316.023 183.2 316.023C180.592 316.023 178.384 314.264 177.597 311.9H174.252V314.491C175.9 317.759 179.286 320 183.2 320Z" fill="#34A853"/>
<path fill-rule="evenodd" clip-rule="evenodd" d="M177.598 311.9C177.397 311.3 177.284 310.659 177.284 310C177.284 309.341 177.397 308.7 177.598 308.1V305.509H174.252C173.574 306.859 173.188 308.386 173.188 310C173.188 311.614 173.574 313.141 174.252 314.491L177.598 311.9Z" fill="#FBBC05"/>
<path fill-rule="evenodd" clip-rule="evenodd" d="M183.2 303.977C184.67 303.977 185.99 304.482 187.027 305.473L189.899 302.605C188.165 300.991 185.899 300 183.2 300C179.286 300 175.9 302.241 174.252 305.509L177.597 308.1C178.384 305.736 180.592 303.977 183.2 303.977Z" fill="#EA4335"/>
<path d="M188.504 24.364L185.21 37H181.484L179.468 28.684L177.38 37H173.654L170.45 24.364H173.744L175.562 33.562L177.812 24.364H181.196L183.356 33.562L185.192 24.364H188.504ZM194.62 37.144C193.636 37.144 192.748 36.934 191.956 36.514C191.176 36.094 190.558 35.494 190.102 34.714C189.658 33.934 189.436 33.022 189.436 31.978C189.436 30.946 189.664 30.04 190.12 29.26C190.576 28.468 191.2 27.862 191.992 27.442C192.784 27.022 193.672 26.812 194.656 26.812C195.64 26.812 196.528 27.022 197.32 27.442C198.112 27.862 198.736 28.468 199.192 29.26C199.648 30.04 199.876 30.946 199.876 31.978C199.876 33.01 199.642 33.922 199.174 34.714C198.718 35.494 198.088 36.094 197.284 36.514C196.492 36.934 195.604 37.144 194.62 37.144ZM194.62 34.48C195.208 34.48 195.706 34.264 196.114 33.832C196.534 33.4 196.744 32.782 196.744 31.978C196.744 31.174 196.54 30.556 196.132 30.124C195.736 29.692 195.244 29.476 194.656 29.476C194.056 29.476 193.558 29.692 193.162 30.124C192.766 30.544 192.568 31.162 192.568 31.978C192.568 32.782 192.76 33.4 193.144 33.832C193.54 34.264 194.032 34.48 194.62 34.48ZM204.587 28.63C204.947 28.078 205.397 27.646 205.937 27.334C206.477 27.01 207.077 26.848 207.737 26.848V30.106H206.891C206.123 30.106 205.547 30.274 205.163 30.61C204.779 30.934 204.587 31.51 204.587 32.338V37H201.509V26.956H204.587V28.63ZM215.346 37L212.286 32.788V37H209.208V23.68H212.286V31.042L215.328 26.956H219.126L214.95 31.996L219.162 37H215.346Z" fill="white"/>
<path d="M229.44 32.576L228.696 36.04L232.16 35.296L239.568 27.888C240.32 27.136 240.32 25.92 239.568 25.168C238.816 24.416 237.6 24.416 236.848 25.168L229.44 32.576Z" stroke="white" stroke-width="1.6" stroke-linejoin="round"/>
<path d="M238.808 28.64L236.064 25.944" stroke="white" stroke-width="1.6" stroke-linejoin="round"/>
<rect x="443" y="632" width="39" height="39" rx="10" fill="#2D2D33"/>
<path fill-rule="evenodd" clip-rule="evenodd" d="M466.23 644.87L463.97 642H461.14L458.88 644.87C458.67 645.13 458.37 645.3 458.04 645.35L454.42 645.87L453 648.32L454.35 651.71C454.47 652.02 454.47 652.37 454.35 652.68L453 656.07L454.42 658.52L458.04 659.04C458.37 659.09 458.67 659.26 458.88 659.52L461.14 662.39H463.97L466.23 659.52C466.44 659.26 466.74 659.09 467.07 659.04L470.69 658.52L472.11 656.07L470.76 652.68C470.64 652.37 470.64 652.02 470.76 651.71L472.11 648.32L470.69 645.87L467.07 645.35C466.74 645.3 466.44 645.13 466.23 644.87ZM466.55 652.2C466.55 654.409 464.759 656.2 462.55 656.2C460.341 656.2 458.55 654.409 458.55 652.2C458.55 649.991 460.341 648.2 462.55 648.2C464.759 648.2 466.55 649.991 466.55 652.2Z" fill="white"/>
<g filter="url(#filter0_d_1_2090)">
<rect x="100" y="454" width="91.2" height="93.6" rx="24" fill="#6247AA"/>
<path d="M145.6 485.866V513.334" stroke="white" stroke-width="7.2" stroke-miterlimit="10" stroke-linecap="round"/>
<path d="M131.866 499.6H159.334" stroke="white" stroke-width="7.2" stroke-miterlimit="10" stroke-linecap="round"/>
</g>
<path d="M696 392.555V415.445" stroke="#1A1A1A" stroke-width="6" stroke-miterlimit="10" stroke-linecap="round"/>
<path d="M684.555 404H707.445" stroke="#1A1A1A" stroke-width="6" stroke-miterlimit="10" stroke-linecap="round"/>
<rect x="520" y="60" width="351" height="688" rx="20" stroke="#1E1D22" stroke-width="3" stroke-linecap="round" stroke-dasharray="15 15"/>
<g filter="url(#filter1_d_1_2090)">
<rect x="651" y="156" width="315" height="79" rx="15" fill="#2D2D33"/>
<path d="M743.43 187.342V202H740.49V192.466L736.563 202H734.337L730.389 192.466V202H727.449V187.342H730.788L735.45 198.241L740.112 187.342H743.43ZM757.467 190.366L750.264 207.502H747.135L749.655 201.706L744.993 190.366H748.29L751.293 198.493L754.338 190.366H757.467ZM770.502 190.198C771.888 190.198 773.008 190.639 773.862 191.521C774.716 192.389 775.143 193.607 775.143 195.175V202H772.203V195.574C772.203 194.65 771.972 193.943 771.51 193.453C771.048 192.949 770.418 192.697 769.62 192.697C768.808 192.697 768.164 192.949 767.688 193.453C767.226 193.943 766.995 194.65 766.995 195.574V202H764.055V190.366H766.995V191.815C767.387 191.311 767.884 190.919 768.486 190.639C769.102 190.345 769.774 190.198 770.502 190.198ZM788.754 195.931C788.754 196.351 788.726 196.729 788.67 197.065H780.165C780.235 197.905 780.529 198.563 781.047 199.039C781.565 199.515 782.202 199.753 782.958 199.753C784.05 199.753 784.827 199.284 785.289 198.346H788.46C788.124 199.466 787.48 200.39 786.528 201.118C785.576 201.832 784.407 202.189 783.021 202.189C781.901 202.189 780.893 201.944 779.997 201.454C779.115 200.95 778.422 200.243 777.918 199.333C777.428 198.423 777.183 197.373 777.183 196.183C777.183 194.979 777.428 193.922 777.918 193.012C778.408 192.102 779.094 191.402 779.976 190.912C780.858 190.422 781.873 190.177 783.021 190.177C784.127 190.177 785.114 190.415 785.982 190.891C786.864 191.367 787.543 192.046 788.019 192.928C788.509 193.796 788.754 194.797 788.754 195.931ZM785.709 195.091C785.695 194.335 785.422 193.733 784.89 193.285C784.358 192.823 783.707 192.592 782.937 192.592C782.209 192.592 781.593 192.816 781.089 193.264C780.599 193.698 780.298 194.307 780.186 195.091H785.709ZM807.028 190.366L803.626 202H800.455L798.334 193.873L796.213 202H793.021L789.598 190.366H792.58L794.638 199.228L796.864 190.366H799.972L802.156 199.207L804.214 190.366H807.028ZM812.867 196.183C812.867 194.979 813.112 193.929 813.602 193.033C814.092 192.123 814.771 191.423 815.639 190.933C816.507 190.429 817.501 190.177 818.621 190.177C820.063 190.177 821.253 190.541 822.191 191.269C823.143 191.983 823.78 192.991 824.102 194.293H820.931C820.763 193.789 820.476 193.397 820.07 193.117C819.678 192.823 819.188 192.676 818.6 192.676C817.76 192.676 817.095 192.984 816.605 193.6C816.115 194.202 815.87 195.063 815.87 196.183C815.87 197.289 816.115 198.15 816.605 198.766C817.095 199.368 817.76 199.669 818.6 199.669C819.79 199.669 820.567 199.137 820.931 198.073H824.102C823.78 199.333 823.143 200.334 822.191 201.076C821.239 201.818 820.049 202.189 818.621 202.189C817.501 202.189 816.507 201.944 815.639 201.454C814.771 200.95 814.092 200.25 813.602 199.354C813.112 198.444 812.867 197.387 812.867 196.183ZM831.422 202.189C830.302 202.189 829.294 201.944 828.398 201.454C827.502 200.95 826.795 200.243 826.277 199.333C825.773 198.423 825.521 197.373 825.521 196.183C825.521 194.993 825.78 193.943 826.298 193.033C826.83 192.123 827.551 191.423 828.461 190.933C829.371 190.429 830.386 190.177 831.506 190.177C832.626 190.177 833.641 190.429 834.551 190.933C835.461 191.423 836.175 192.123 836.693 193.033C837.225 193.943 837.491 194.993 837.491 196.183C837.491 197.373 837.218 198.423 836.672 199.333C836.14 200.243 835.412 200.95 834.488 201.454C833.578 201.944 832.556 202.189 831.422 202.189ZM831.422 199.627C831.954 199.627 832.451 199.501 832.913 199.249C833.389 198.983 833.767 198.591 834.047 198.073C834.327 197.555 834.467 196.925 834.467 196.183C834.467 195.077 834.173 194.23 833.585 193.642C833.011 193.04 832.304 192.739 831.464 192.739C830.624 192.739 829.917 193.04 829.343 193.642C828.783 194.23 828.503 195.077 828.503 196.183C828.503 197.289 828.776 198.143 829.322 198.745C829.882 199.333 830.582 199.627 831.422 199.627ZM842.587 186.46V202H839.647V186.46H842.587ZM848.432 186.46V202H845.492V186.46H848.432ZM862.152 195.931C862.152 196.351 862.124 196.729 862.068 197.065H853.563C853.633 197.905 853.927 198.563 854.445 199.039C854.963 199.515 855.6 199.753 856.356 199.753C857.448 199.753 858.225 199.284 858.687 198.346H861.858C861.522 199.466 860.878 200.39 859.926 201.118C858.974 201.832 857.805 202.189 856.419 202.189C855.299 202.189 854.291 201.944 853.395 201.454C852.513 200.95 851.82 200.243 851.316 199.333C850.826 198.423 850.581 197.373 850.581 196.183C850.581 194.979 850.826 193.922 851.316 193.012C851.806 192.102 852.492 191.402 853.374 190.912C854.256 190.422 855.271 190.177 856.419 190.177C857.525 190.177 858.512 190.415 859.38 190.891C860.262 191.367 860.941 192.046 861.417 192.928C861.907 193.796 862.152 194.797 862.152 195.931ZM859.107 195.091C859.093 194.335 858.82 193.733 858.288 193.285C857.756 192.823 857.105 192.592 856.335 192.592C855.607 192.592 854.991 192.816 854.487 193.264C853.997 193.698 853.696 194.307 853.584 195.091H859.107ZM863.542 196.183C863.542 194.979 863.787 193.929 864.277 193.033C864.767 192.123 865.446 191.423 866.314 190.933C867.182 190.429 868.176 190.177 869.296 190.177C870.738 190.177 871.928 190.541 872.866 191.269C873.818 191.983 874.455 192.991 874.777 194.293H871.606C871.438 193.789 871.151 193.397 870.745 193.117C870.353 192.823 869.863 192.676 869.275 192.676C868.435 192.676 867.77 192.984 867.28 193.6C866.79 194.202 866.545 195.063 866.545 196.183C866.545 197.289 866.79 198.15 867.28 198.766C867.77 199.368 868.435 199.669 869.275 199.669C870.465 199.669 871.242 199.137 871.606 198.073H874.777C874.455 199.333 873.818 200.334 872.866 201.076C871.914 201.818 870.724 202.189 869.296 202.189C868.176 202.189 867.182 201.944 866.314 201.454C865.446 200.95 864.767 200.25 864.277 199.354C863.787 198.444 863.542 197.387 863.542 196.183ZM880.353 192.781V198.409C880.353 198.801 880.444 199.088 880.626 199.27C880.822 199.438 881.144 199.522 881.592 199.522H882.957V202H881.109C878.631 202 877.392 200.796 877.392 198.388V192.781H876.006V190.366H877.392V187.489H880.353V190.366H882.957V192.781H880.353ZM886.563 188.98C886.045 188.98 885.611 188.819 885.261 188.497C884.925 188.161 884.757 187.748 884.757 187.258C884.757 186.768 884.925 186.362 885.261 186.04C885.611 185.704 886.045 185.536 886.563 185.536C887.081 185.536 887.508 185.704 887.844 186.04C888.194 186.362 888.369 186.768 888.369 187.258C888.369 187.748 888.194 188.161 887.844 188.497C887.508 188.819 887.081 188.98 886.563 188.98ZM888.012 190.366V202H885.072V190.366H888.012ZM896.083 202.189C894.963 202.189 893.955 201.944 893.059 201.454C892.163 200.95 891.456 200.243 890.938 199.333C890.434 198.423 890.182 197.373 890.182 196.183C890.182 194.993 890.441 193.943 890.959 193.033C891.491 192.123 892.212 191.423 893.122 190.933C894.032 190.429 895.047 190.177 896.167 190.177C897.287 190.177 898.302 190.429 899.212 190.933C900.122 191.423 900.836 192.123 901.354 193.033C901.886 193.943 902.152 194.993 902.152 196.183C902.152 197.373 901.879 198.423 901.333 199.333C900.801 200.243 900.073 200.95 899.149 201.454C898.239 201.944 897.217 202.189 896.083 202.189ZM896.083 199.627C896.615 199.627 897.112 199.501 897.574 199.249C898.05 198.983 898.428 198.591 898.708 198.073C898.988 197.555 899.128 196.925 899.128 196.183C899.128 195.077 898.834 194.23 898.246 193.642C897.672 193.04 896.965 192.739 896.125 192.739C895.285 192.739 894.578 193.04 894.004 193.642C893.444 194.23 893.164 195.077 893.164 196.183C893.164 197.289 893.437 198.143 893.983 198.745C894.543 199.333 895.243 199.627 896.083 199.627ZM910.755 190.198C912.141 190.198 913.261 190.639 914.115 191.521C914.969 192.389 915.396 193.607 915.396 195.175V202H912.456V195.574C912.456 194.65 912.225 193.943 911.763 193.453C911.301 192.949 910.671 192.697 909.873 192.697C909.061 192.697 908.417 192.949 907.941 193.453C907.479 193.943 907.248 194.65 907.248 195.574V202H904.308V190.366H907.248V191.815C907.64 191.311 908.137 190.919 908.739 190.639C909.355 190.345 910.027 190.198 910.755 190.198Z" fill="white"/>
<path d="M689.505 202.275V195.285" stroke="white" stroke-width="3" stroke-miterlimit="10" stroke-linecap="round"/>
<path d="M686.01 198.78H693" stroke="white" stroke-width="3" stroke-miterlimit="10" stroke-linecap="round"/>
<path d="M696.78 189.03H682.23C680.863 189.03 679.755 190.138 679.755 191.505V206.055C679.755 207.422 680.863 208.53 682.23 208.53H696.78C698.147 208.53 699.255 207.422 699.255 206.055V191.505C699.255 190.138 698.147 189.03 696.78 189.03Z" stroke="white" stroke-width="3" stroke-linecap="round" stroke-linejoin="round"/>
<path d="M700.335 201.03H704.265C705.63 201.03 706.74 199.92 706.74 198.555V184.02C706.74 182.655 705.63 181.545 704.265 181.545H689.73C688.365 181.545 687.255 182.655 687.255 184.02V185.685" stroke="white" stroke-width="3" stroke-linecap="round" stroke-linejoin="round"/>
</g>
<defs>
<filter id="filter0_d_1_2090" x="0" y="358" width="291.2" height="293.6" filterUnits="userSpaceOnUse" color-interpolation-filters="sRGB">
<feFlood flood-opacity="0" result="BackgroundImageFix"/>
<feColorMatrix in="SourceAlpha" type="matrix" values="0 0 0 0 0 0 0 0 0 0 0 0 0 0 0 0 0 0 127 0" result="hardAlpha"/>
<feOffset dy="4"/>
<feGaussianBlur stdDeviation="50"/>
<feComposite in2="hardAlpha" operator="out"/>
<feColorMatrix type="matrix" values="0 0 0 0 0 0 0 0 0 0 0 0 0 0 0 0 0 0 0.1 0"/>
<feBlend mode="normal" in2="BackgroundImageFix" result="effect1_dropShadow_1_2090"/>
<feBlend mode="normal" in="SourceGraphic" in2="effect1_dropShadow_1_2090" result="shape"/>
</filter>
<filter id="filter1_d_1_2090" x="551" y="60" width="515" height="279" filterUnits="userSpaceOnUse" color-interpolation-filters="sRGB">
<feFlood flood-opacity="0" result="BackgroundImageFix"/>
<feColorMatrix in="SourceAlpha" type="matrix" values="0 0 0 0 0 0 0 0 0 0 0 0 0 0 0 0 0 0 127 0" result="hardAlpha"/>
<feOffset dy="4"/>
<feGaussianBlur stdDeviation="50"/>
<feComposite in2="hardAlpha" operator="out"/>
<feColorMatrix type="matrix" values="0 0 0 0 0 0 0 0 0 0 0 0 0 0 0 0 0 0 0.1 0"/>
<feBlend mode="normal" in2="BackgroundImageFix" result="effect1_dropShadow_1_2090"/>
<feBlend mode="normal" in="SourceGraphic" in2="effect1_dropShadow_1_2090" result="shape"/>
</filter>
<clipPath id="clip0_1_2090">
<rect width="25" height="25" fill="white" transform="translate(170.5 82.5)"/>
</clipPath>
<clipPath id="clip1_1_2090">
<rect x="169" y="135" width="28" height="28" fill="white"/>
</clipPath>
</defs>
</svg>
